<?xml version="1.0" encoding="utf-8"?>
<!-- Generator: Adobe Illustrator 21.1.0, SVG Export Plug-In . SVG Version: 6.00 Build 0)  -->
<svg version="1.1" id="Layer_1" xmlns="http://www.w3.org/2000/svg" xmlns:xlink="http://www.w3.org/1999/xlink" x="0px" y="0px"
	 viewBox="0 0 457.8 457.8" style="enable-background:new 0 0 457.8 457.8;" xml:space="preserve">
<style type="text/css">
	.st0{enable-background:new    ;}
	.st1{fill:#FFFFFF;}
	.st2{opacity:0.8;fill:#FFFFFF;enable-background:new    ;}
	.st3{fill:#0A0808;}
	.st4{fill:#FFA70B;}
</style>
<title>white v2</title>
<g class="st0">
	<path class="st1" d="M72.9,380.3H80c11.8,0,18.5,6.5,18.5,17.3c0,11.5-7,17.3-18.5,17.3h-7.1V380.3z M80.8,411.4
		c8.3,0,13.6-4.7,13.6-13.7c0-8.6-5.3-13.7-13.6-13.7h-3.9v27.4H80.8z"/>
	<path class="st1" d="M119.9,379.7c10.1,0,17.6,7.9,17.6,17.9c0,10.2-7.6,17.9-17.7,17.9c-10,0-17.6-7.7-17.6-17.9
		C102.3,387.5,109.9,379.7,119.9,379.7z M119.9,411.8c7.7,0,13.5-6,13.5-14.2c0-8.1-5.8-14.2-13.5-14.2c-7.7,0-13.5,6.1-13.5,14.2
		C106.5,405.8,112.3,411.8,119.9,411.8z"/>
	<path class="st1" d="M144.6,406.5c0.9,2.7,3,5.4,7.6,5.4c3.7,0,6.3-2.1,6.3-5.7c0-8.6-16.2-6.4-16.2-17.6c0-4.9,3.8-8.8,9.9-8.8
		c6.2,0,8.9,4.3,9.8,6.6l-3.4,1.4c-0.8-1.7-2.7-4.3-6.5-4.3s-5.8,2.3-5.8,5.2c0,7.9,16.3,6.3,16.3,17.3c0,5.4-4,9.7-10.5,9.7
		c-6.7,0-9.7-4.3-10.8-7.6L144.6,406.5z"/>
	<path class="st1" d="M168.4,380.3h16.4v3.7h-12.4v11.5h10.8v3.6h-10.8v12.2h12.9v3.6h-16.9V380.3z"/>
	<path class="st1" d="M220,379.7c10.1,0,17.6,7.9,17.6,17.9c0,10.2-7.6,17.9-17.7,17.9c-10,0-17.6-7.7-17.6-17.9
		C202.3,387.5,209.9,379.7,220,379.7z M220,411.8c7.7,0,13.5-6,13.5-14.2c0-8.1-5.8-14.2-13.5-14.2c-7.7,0-13.5,6.1-13.5,14.2
		C206.5,405.8,212.3,411.8,220,411.8z"/>
	<path class="st1" d="M243.4,380.3h16.4v3.7h-12.4v11.9h10.9v3.6h-10.9v15.5h-4V380.3z"/>
</g>
<g class="st0">
	<path class="st1" d="M292,387.9v27h-8.4v-27h-7.5v-7.6h23.4v7.6H292z"/>
	<path class="st1" d="M303.5,414.9v-34.6h18.4v7.6h-10v5.8h8.5v7.5h-8.5v6.2h10.4v7.6H303.5z"/>
	<path class="st1" d="M325.7,397.6c0-10.1,7.5-17.9,18.3-17.9c4.3,0,7.6,1.2,10.1,2.9l-2.4,7.4c-1.8-1.2-4.4-2.4-7.4-2.4
		c-6.3,0-9.8,4.6-9.8,10s3.5,10.1,9.8,10.1c3,0,5.7-1.2,7.6-2.4l2.4,7.4c-2.5,1.7-5.9,2.9-10.2,2.9
		C332.8,415.6,325.7,407.8,325.7,397.6z"/>
	<path class="st1" d="M387.8,414.9h-8.4v-13.5H367v13.5h-8.4v-34.6h8.4v13.4h12.3v-13.4h8.4V414.9z"/>
</g>
<rect x="68" y="34" class="st2" width="322.4" height="322.4"/>
<path class="st3" d="M253.8,138.2V59c0-16.6-8.4-24.9-25.1-24.9s-25.2,8.5-25.2,25.6v78.6h-59.1c-50.3,0-75.4,25.7-75.4,77.1v65.4
	c0,50.3,25.3,75.5,75.9,75.5h84.2c16.5,0,24.7-8.5,24.7-25.6V188.1h18.9v-49.9H253.8z M203.5,305.7h-58.7c-17,0-25.6-8.1-25.6-24.3
	v-67.1c0-17.2,8.5-25.8,25.6-25.8h58.7V305.7z"/>
<path class="st4" d="M295.7,59.2c-0.1-1.3,0.1-2.6,0.4-3.9h-0.4V59.2z"/>
<path class="st3" d="M390.4,331.6c0,16.5-8.2,24.7-25,24.7h-17.2c-50.4,0-75.5-25.8-75.5-77.3V59.2c-0.1-1.3,0.1-2.6,0.4-3.9
	c1.1-14.3,9.7-21.1,24.7-21.1c15.7-0.4,24,6.8,25,21.1c0.3,1.3,0.4,2.6,0.4,3.9v78.9h40.8c17.5,0,26.5,8.2,26.5,25
	c0,16.5-8.6,24.7-25.8,25h-41.5v92.3c0,16.8,8.6,25.4,25.4,25.4l17.2,0.4C382.2,306.2,390.4,314.4,390.4,331.6z"/>
</svg>
