<?xml version="1.0" encoding="utf-8"?>
<!-- Generator: Adobe Illustrator 21.1.0, SVG Export Plug-In . SVG Version: 6.00 Build 0)  -->
<svg version="1.1" id="Layer_1" xmlns="http://www.w3.org/2000/svg" xmlns:xlink="http://www.w3.org/1999/xlink" x="0px" y="0px"
	 viewBox="0 0 457.8 457.8" style="enable-background:new 0 0 457.8 457.8;" xml:space="preserve">
<style type="text/css">
	.st0{enable-background:new    ;}
	.st1{fill:#002137;}
	.st2{fill:#FFA70B;}
	.st3{fill:#00A4FF;}
</style>
<title>v1</title>
<g class="st0">
	<path class="st1" d="M127.8,372.6c10.1,0,16.6,5.9,16.6,15.8c0,9.9-6.5,15.8-16.6,15.8h-9.3v-31.6H127.8z M126.2,379.2v18.2h1.6
		c5.2,0,8.6-3.1,8.6-9.1s-3.4-9.1-8.6-9.1H126.2z"/>
	<path class="st1" d="M146.9,388.3c0-9.2,6.6-16.3,16.5-16.3s16.5,7.2,16.5,16.3c0,9.3-6.6,16.4-16.5,16.4S146.9,397.6,146.9,388.3z
		 M154.9,388.3c0,5.3,3.5,9.2,8.5,9.2s8.5-3.9,8.5-9.2c0-5.2-3.5-9.1-8.5-9.1S154.9,383.1,154.9,388.3z"/>
	<path class="st1" d="M203.4,379.3l-6.4,2.9c-0.6-1.4-1.6-3.1-4-3.1c-1.5,0-2.5,0.9-2.5,2.1c0,4.3,13.2,3.8,13.2,13.5
		c0,5.8-4.1,10-11,10c-7.1,0-9.9-5.1-10.7-7.5l6.4-3.2c0.9,1.8,2.6,3.5,4.7,3.5c1.8,0,2.8-0.8,2.8-2.2c0-4.2-13.1-3.8-13.1-13.9
		c0-5.7,4.1-9.4,10.4-9.4C200,372,202.6,376.9,203.4,379.3z"/>
	<path class="st1" d="M207.8,404.1v-31.6h16.8v6.9h-9.1v5.3h7.8v6.9h-7.8v5.6h9.5v6.9H207.8z"/>
	<path class="st1" d="M236.9,388.3c0-9.2,6.6-16.3,16.5-16.3c10,0,16.5,7.2,16.5,16.3c0,9.3-6.6,16.4-16.5,16.4
		C243.5,404.7,236.9,397.6,236.9,388.3z M244.9,388.3c0,5.3,3.5,9.2,8.5,9.2c5,0,8.5-3.9,8.5-9.2c0-5.2-3.5-9.1-8.5-9.1
		C248.4,379.2,244.9,383.1,244.9,388.3z"/>
	<path class="st1" d="M281.7,392.1v12H274v-31.6h16.7v6.9h-9v5.8h7.8v6.9H281.7z"/>
	<path class="st1" d="M316.7,379.5v24.7H309v-24.7h-6.8v-6.9h21.3v6.9H316.7z"/>
	<path class="st1" d="M327.2,404.1v-31.6H344v6.9h-9.1v5.3h7.8v6.9h-7.8v5.6h9.5v6.9H327.2z"/>
	<path class="st1" d="M347.4,388.3c0-9.2,6.9-16.3,16.7-16.3c3.9,0,6.9,1.1,9.2,2.7l-2.2,6.8c-1.7-1.1-4.1-2.2-6.8-2.2
		c-5.8,0-8.9,4.2-8.9,9.1s3.2,9.2,8.9,9.2c2.7,0,5.2-1.1,6.9-2.2l2.2,6.8c-2.3,1.5-5.4,2.7-9.3,2.7
		C353.9,404.7,347.4,397.6,347.4,388.3z"/>
	<path class="st1" d="M404.1,404.1h-7.7v-12.4h-11.3v12.4h-7.7v-31.6h7.7v12.3h11.3v-12.3h7.7V404.1z"/>
</g>
<path class="st1" d="M242.4,151.9c-42.5-45.3-113.7-47.6-159-5.1s-47.6,113.7-5.1,159c21.3,22.7,51,35.6,82.1,35.6
	c6.5,0,12.9-0.5,19.3-1.6c61.2-10.7,102.2-69,91.6-130.2C267.4,187.9,257.4,167.9,242.4,151.9L242.4,151.9z"/>
<path class="st2" d="M346.7,141.6h-61.5V69.4c0-15.2-7.6-22.7-22.9-22.8s-23,7.8-23,23.3v71.7h-53.9c-45.9,0-68.9,23.5-68.8,70.4
	v59.7c0,40.4,17.9,63.1,53.7,67.9c5.1,0.7,10.3,1,15.5,1h76.9c15,0,22.6-7.8,22.6-23.4v-130h61.5c12.6-0.3,22.6-10.7,22.3-23.3
	C368.7,151.8,358.9,141.9,346.7,141.6L346.7,141.6z M162.5,272.3v-61.2c0-15.7,7.8-23.5,23.4-23.5h53.5v106.9h-53.5
	C170.2,294.4,162.5,287,162.5,272.3z"/>
<path class="st2" d="M323.5,69.5c-0.1-1.2,0.1-2.4,0.3-3.6h-0.3V69.5z"/>
<path class="st3" d="M409.8,318.1c0,15-7.5,22.5-22.9,22.5h-15.7c-46,0-68.9-23.5-68.9-70.5V69.5c-0.1-1.2,0.1-2.4,0.3-3.6
	c1-13,8.8-19.3,22.5-19.3c14.4-0.3,21.9,6.2,22.9,19.3c0.3,1.2,0.4,2.4,0.3,3.6v72h37.2c16,0,24.1,7.5,24.1,22.9
	c0,15-7.8,22.5-23.5,22.9h-37.9v84.2c0,15.3,7.8,23.2,23.2,23.2l15.7,0.3C402.3,294.9,409.8,302.4,409.8,318.1z"/>
</svg>
