<svg id="Layer_1" data-name="Layer 1" xmlns="http://www.w3.org/2000/svg" viewBox="0 0 457.81 258.13"><defs><style>.cls-1,.cls-2{fill:#606060;}.cls-1{opacity:0.8;}</style></defs><title>black v3</title><path class="cls-1" d="M128.72,95.16V47.37q0-15.06-15.18-15.05T98.36,47.75V95.16H62.69q-45.52,0-45.53,46.55v39.46q0,45.54,45.78,45.53h50.85q14.93,0,14.93-15.43v-86H140.1V95.16ZM98.36,196.22H62.94q-15.42,0-15.43-14.67V141.08q0-15.57,15.43-15.56H98.36Z"/><path class="cls-2" d="M154,45.1v2.38a8.7,8.7,0,0,1,.22-2.38Z"/><path class="cls-2" d="M196.22,196.52l-10.36-.22c-10.14,0-15.32-5.18-15.32-15.32V125.29h25c10.36-.22,15.54-5.18,15.54-15.11,0-10.15-5.4-15.12-16-15.12H170.54V47.48a8,8,0,0,0-.22-2.38c-.65-8.63-5.61-12.95-15.11-12.73-9.06,0-14.25,4.1-14.89,12.73a8.7,8.7,0,0,0-.22,2.38V180.11c0,31.09,15.11,46.63,45.55,46.63H196c10.14,0,15.11-5,15.11-14.89C211.12,201.49,206.15,196.52,196.22,196.52ZM154,45.1h.22a8.7,8.7,0,0,0-.22,2.38Z"/><path class="cls-2" d="M154.2,45.1a8.7,8.7,0,0,0-.22,2.38V45.1Z"/><path class="cls-2" d="M256.79,32.09H268c18.58,0,29.16,10.19,29.16,27.22,0,18-11,27.22-29.16,27.22h-11.2Zm12.44,48.83c13.06,0,21.46-7.39,21.46-21.62,0-13.61-8.4-21.54-21.46-21.54h-6.14V80.92Z"/><path class="cls-2" d="M330.89,31.08c15.86,0,27.76,12.36,27.76,28.23,0,16-12,28.23-27.84,28.23s-27.68-12.05-27.68-28.23C303.13,43.29,315.11,31.08,330.89,31.08Zm0,50.54c12.05,0,21.23-9.41,21.23-22.32,0-12.75-9.18-22.32-21.23-22.32s-21.23,9.56-21.23,22.32C309.67,72.22,318.84,81.62,330.89,81.62Z"/><path class="cls-2" d="M369.69,73.23c1.48,4.2,4.74,8.48,11.9,8.48,5.75,0,9.88-3.34,9.88-9C391.46,59.07,366,62.57,366,45c0-7.78,5.91-13.92,15.55-13.92a15.87,15.87,0,0,1,15.4,10.42l-5.29,2.18a11,11,0,0,0-10.19-6.84c-6,0-9.18,3.65-9.18,8.16,0,12.44,25.58,9.88,25.58,27.29,0,8.55-6.3,15.24-16.48,15.24-10.58,0-15.32-6.77-17-12Z"/><path class="cls-2" d="M407.17,32.09H433v5.75H413.47V56h17v5.68h-17V80.85h20.37v5.68H407.17Z"/><path class="cls-2" d="M281.37,100.69c15.86,0,27.76,12.36,27.76,28.23,0,16-12,28.23-27.84,28.23s-27.68-12.05-27.68-28.23C253.61,112.89,265.58,100.69,281.37,100.69Zm0,50.54c12.05,0,21.23-9.41,21.23-22.32,0-12.75-9.18-22.32-21.23-22.32s-21.23,9.56-21.23,22.32C260.14,141.82,269.31,151.23,281.37,151.23Z"/><path class="cls-2" d="M318.3,101.7h25.82v5.75H324.6v18.66H341.7v5.68H324.6v24.34h-6.3Z"/><path class="cls-2" d="M277.17,183.2v42.53h-13.3V183.2H252.13V171.3h36.78v11.9Z"/><path class="cls-2" d="M295.2,225.73V171.3h29v11.9H308.5v9.1h13.37v11.82H308.5v9.72h16.33v11.9Z"/><path class="cls-2" d="M330.19,198.44c0-15.94,11.82-28.15,28.77-28.15a27.63,27.63,0,0,1,15.86,4.59l-3.73,11.66a21.24,21.24,0,0,0-11.66-3.81c-10,0-15.4,7.23-15.4,15.71s5.44,15.86,15.4,15.86a22.06,22.06,0,0,0,11.9-3.81l3.73,11.66a28.43,28.43,0,0,1-16.1,4.59C341.39,226.74,330.19,214.46,330.19,198.44Z"/><path class="cls-2" d="M427.93,225.73h-13.3V204.43H395.2v21.31H381.9V171.3h13.3v21.15h19.44V171.3h13.3Z"/></svg>