<svg id="Layer_1" data-name="Layer 1" xmlns="http://www.w3.org/2000/svg" viewBox="0 0 457.81 257.87"><defs><style>.cls-1{fill:#ffa70b;}.cls-2{fill:#00a4ff;}.cls-3{fill:#606060;}</style></defs><title>v3</title><path class="cls-1" d="M169.36,95H128.72V47.24q0-15.05-15.18-15.05T98.36,47.62V95H62.69q-45.53,0-45.53,46.55V181q0,45.53,45.79,45.53h50.85q14.92,0,14.92-15.43v-86h40.64a15.06,15.06,0,0,0,0-30.12Zm-71,101.06H62.95q-15.43,0-15.43-14.67V140.95q0-15.56,15.43-15.56H98.36Z"/><path class="cls-1" d="M154,47.35A8.84,8.84,0,0,1,154.2,45H154Z"/><path class="cls-2" d="M211.12,211.72c0,9.93-5,14.89-15.11,14.89H185.65c-30.44,0-45.55-15.54-45.55-46.63V47.35a8.84,8.84,0,0,1,.22-2.37c.65-8.63,5.83-12.74,14.89-12.74,9.5-.22,14.46,4.1,15.11,12.74a8.14,8.14,0,0,1,.21,2.37V94.93h24.61c10.58,0,16,5,16,15.11,0,9.93-5.18,14.89-15.54,15.11h-25v55.69c0,10.14,5.18,15.33,15.33,15.33l10.36.22C206.16,196.39,211.12,201.36,211.12,211.72Z"/><path class="cls-3" d="M263.79,32H275c18.58,0,29.16,10.19,29.16,27.22,0,18-11,27.22-29.16,27.22h-11.2Zm12.44,48.83c13.06,0,21.46-7.39,21.46-21.62,0-13.61-8.4-21.54-21.46-21.54h-6.14V80.79Z"/><path class="cls-3" d="M337.89,30.95c15.86,0,27.76,12.36,27.76,28.23,0,16-12,28.23-27.84,28.23s-27.68-12.05-27.68-28.23C310.13,43.16,322.11,30.95,337.89,30.95Zm0,50.54c12.05,0,21.23-9.41,21.23-22.32,0-12.75-9.18-22.32-21.23-22.32s-21.23,9.56-21.23,22.32C316.67,72.08,325.84,81.49,337.89,81.49Z"/><path class="cls-3" d="M376.69,73.09c1.48,4.2,4.74,8.48,11.9,8.48,5.75,0,9.88-3.34,9.88-9,0-13.61-25.5-10.11-25.5-27.68,0-7.78,5.91-13.92,15.55-13.92a15.87,15.87,0,0,1,15.4,10.42l-5.29,2.18a11,11,0,0,0-10.19-6.84c-6,0-9.18,3.65-9.18,8.16,0,12.44,25.58,9.88,25.58,27.29,0,8.55-6.3,15.24-16.48,15.24-10.58,0-15.32-6.77-17-12Z"/><path class="cls-3" d="M414.17,32H440v5.75H420.47V55.83h17v5.68h-17V80.71h20.37v5.68H414.17Z"/><path class="cls-3" d="M288.37,100.55c15.86,0,27.76,12.36,27.76,28.23,0,16-12,28.23-27.84,28.23S260.61,145,260.61,128.78C260.61,112.76,272.58,100.55,288.37,100.55Zm0,50.54c12.05,0,21.23-9.41,21.23-22.32,0-12.75-9.18-22.32-21.23-22.32s-21.23,9.56-21.23,22.32C267.14,141.69,276.31,151.1,288.37,151.1Z"/><path class="cls-3" d="M325.3,101.56h25.82v5.75H331.6V126H348.7v5.68H331.6V156h-6.3Z"/><path class="cls-3" d="M284.17,183.07V225.6h-13.3V183.07H259.13v-11.9h36.78v11.9Z"/><path class="cls-3" d="M302.2,225.6V171.17h29v11.9H315.5v9.1h13.37V204H315.5v9.72h16.33v11.9Z"/><path class="cls-3" d="M337.19,198.31c0-15.94,11.82-28.15,28.77-28.15a27.63,27.63,0,0,1,15.86,4.59l-3.73,11.66a21.24,21.24,0,0,0-11.66-3.81c-10,0-15.4,7.23-15.4,15.71s5.44,15.86,15.4,15.86a22.06,22.06,0,0,0,11.9-3.81L382.06,222a28.43,28.43,0,0,1-16.1,4.59C348.39,226.61,337.19,214.33,337.19,198.31Z"/><path class="cls-3" d="M434.93,225.6h-13.3V204.3H402.2V225.6H388.9V171.17h13.3v21.15h19.44V171.17h13.3Z"/></svg>